<?xml version="1.0" encoding="UTF-8" standalone="yes"?>
<svg xmlns="http://www.w3.org/2000/svg" xmlns:v="http://schemas.microsoft.com/visio/2003/SVGExtensions/" xml:space="preserve" xmlns:xlink="http://www.w3.org/1999/xlink" width="28.385826in" height="20.078741in" viewBox="0 0 2043.7795 1445.6693">
 <v:documentProperties>
  <v:userDefs>
   <v:ud v:nameU="msvNoAutoConnect" v:val="1"/>
  </v:userDefs>
 </v:documentProperties>
 <g id="SFixTitle"/>
 <g id="SContent">
  <g>
   <g transform="matrix(1,0,0,-1,0,1445.6693)">
    <g transform="matrix(1,0,0,1,1084.2521,347.2441)" v:mID="1">
     <title>Shape1</title>
     <path d="M0,99.212600708 L233.858261108,99.212600708 L233.858261108,99.212600708 L233.858261108,0 L233.858261108,0 L0,0 L0,0 L0,99.212600708 " stroke="#000000" stroke-width="1.4173229" stroke-linecap="round" fill="#FFFFFF"  fill-rule="evenodd"/>
     <g transform="matrix(1,0,0,1,0,0)">
      <text x="0" y="-44.54362" class="TextStyle0" fill="#000000" opacity="1" transform="matrix(1,0,0,-1,0,52.080948)">&lt;&lt;CanvasLayer&gt;&gt;</text>
      <text x="0" y="-24.746458" class="TextStyle0" fill="#000000" opacity="1" transform="matrix(1,0,0,-1,0,52.080948)">upgrade_screen</text>
      <text x="0" y="-4.949291" class="TextStyle1" fill="#000000" opacity="1" transform="matrix(1,0,0,-1,0,52.080948)">@export upgrade_card_scene: PackedScene</text>
      <text x="0" y="14.847875" class="TextStyle1" fill="#000000" opacity="1" transform="matrix(1,0,0,-1,0,52.080948)">@onready card_container: HBoxContainer</text>
      <text x="0" y="34.64504" class="TextStyle1" fill="#000000" opacity="1" transform="matrix(1,0,0,-1,0,52.080948)">func _ready()</text>
      <text x="0" y="44.54362" class="TextStyle1" fill="#000000" opacity="1" transform="matrix(1,0,0,-1,0,52.080948)">func set_ability_upgrades(upgrades: Array[AbilityUpgrade])</text>
     </g>
    </g>
    <g transform="matrix(1,0,0,1,552.7559,882.2835)" v:mID="2">
     <title>Shape2</title>
     <path d="M0,116.929130554 L212.598419189,116.929130554 L212.598419189,116.929130554 L212.598419189,0 L212.598419189,0 L0,0 L0,0 L0,116.929130554 " stroke="#000000" stroke-width="1.4173229" stroke-linecap="round" fill="#FFFFFF"  fill-rule="evenodd"/>
     <g transform="matrix(1,0,0,1,0,18.779526)">
      <text x="0" y="-54.4422" class="TextStyle0" fill="#000000" opacity="1" transform="matrix(1,0,0,-1,0,60.93921)">&lt;&lt;node&gt;&gt;</text>
      <text x="0" y="-44.54362" class="TextStyle0" fill="#000000" opacity="1" transform="matrix(1,0,0,-1,0,60.93921)">upgrade_manager</text>
      <text x="0" y="-4.949291" class="TextStyle1" fill="#000000" opacity="1" transform="matrix(1,0,0,-1,0,60.93921)">@export experience_manager: ExperienceManager</text>
      <text x="0" y="4.949291" class="TextStyle1" fill="#000000" opacity="1" transform="matrix(1,0,0,-1,0,60.93921)">@export upgrade_pool: Array[AbilityUpgrade]</text>
      <text x="0" y="14.847875" class="TextStyle1" fill="#000000" opacity="1" transform="matrix(1,0,0,-1,0,60.93921)">@export upgrade_screen_scene: PackedScene</text>
      <text x="0" y="34.64504" class="TextStyle1" fill="#000000" opacity="1" transform="matrix(1,0,0,-1,0,60.93921)">func _ready()</text>
      <text x="0" y="44.54362" class="TextStyle1" fill="#000000" opacity="1" transform="matrix(1,0,0,-1,0,60.93921)">func on_level_up(current_level)</text>
      <text x="0" y="54.4422" class="TextStyle1" fill="#000000" opacity="1" transform="matrix(1,0,0,-1,0,60.93921)">func apply_upgrade(upgrade: AbilityUpgrade)</text>
     </g>
    </g>
    <g transform="matrix(1,0,0,1,563.38586,311.811)" v:mID="3">
     <title>Shape3</title>
     <path d="M0,116.929130554 L134.6456604,116.929130554 L134.6456604,116.929130554 L134.6456604,0 L134.6456604,0 L0,0 L0,0 L0,116.929130554 " stroke="#000000" stroke-width="1.4173229" stroke-linecap="round" fill="#FFFFFF"  fill-rule="evenodd"/>
     <g transform="matrix(1,0,0,1,0,18.779526)">
      <text x="0" y="-64.340775" class="TextStyle0" fill="#000000" opacity="1" transform="matrix(1,0,0,-1,0,60.93921)">&lt;&lt;CharacterBody2D&gt;&gt;</text>
      <text x="0" y="-54.4422" class="TextStyle1" fill="#000000" opacity="1" transform="matrix(1,0,0,-1,0,60.93921)">player</text>
      <text x="0" y="-24.746458" class="TextStyle1" fill="#000000" opacity="1" transform="matrix(1,0,0,-1,0,60.93921)">SPEED</text>
      <text x="0" y="-14.847875" class="TextStyle1" fill="#000000" opacity="1" transform="matrix(1,0,0,-1,0,60.93921)">acceleration</text>
      <text x="0" y="-4.949291" class="TextStyle1" fill="#000000" opacity="1" transform="matrix(1,0,0,-1,0,60.93921)">PLAYER_STATE</text>
      <text x="0" y="14.847875" class="TextStyle1" fill="#000000" opacity="1" transform="matrix(1,0,0,-1,0,60.93921)">func _process</text>
      <text x="0" y="24.746458" class="TextStyle1" fill="#000000" opacity="1" transform="matrix(1,0,0,-1,0,60.93921)">(_delta: float)</text>
      <text x="0" y="34.64504" class="TextStyle1" fill="#000000" opacity="1" transform="matrix(1,0,0,-1,0,60.93921)">func movement_vector()</text>
      <text x="0" y="44.54362" class="TextStyle1" fill="#000000" opacity="1" transform="matrix(1,0,0,-1,0,60.93921)">func _physics_process</text>
      <text x="0" y="54.4422" class="TextStyle1" fill="#000000" opacity="1" transform="matrix(1,0,0,-1,0,60.93921)">(delta: float)</text>
      <text x="0" y="64.340775" class="TextStyle1" fill="#000000" opacity="1" transform="matrix(1,0,0,-1,0,60.93921)">func play_anim()</text>
     </g>
    </g>
    <g transform="matrix(1,0,0,1,154.13385,595.2756)" v:mID="4">
     <title>Shape4</title>
     <path d="M0,53.149604797 L180.70866394,53.149604797 L180.70866394,53.149604797 L180.70866394,0 L180.70866394,0 L0,0 L0,0 L0,53.149604797 " stroke="#000000" stroke-width="1.4173229" stroke-linecap="round" fill="#FFFFFF"  fill-rule="evenodd"/>
     <g transform="matrix(1,0,0,1,-1.7716535,1.7716522)">
      <text x="0" y="-19.797165" class="TextStyle0" fill="#000000" opacity="1" transform="matrix(1,0,0,-1,0,29.049448)">&lt;&lt;node&gt;&gt;</text>
      <text x="0" y="-9.898582" class="TextStyle1" fill="#000000" opacity="1" transform="matrix(1,0,0,-1,0,29.049448)">global</text>
      <text x="0" y="19.797165" class="TextStyle1" fill="#000000" opacity="1" transform="matrix(1,0,0,-1,0,29.049448)">signal experience_bottle_collected</text>
      <text x="0" y="29.69575" class="TextStyle1" fill="#000000" opacity="1" transform="matrix(1,0,0,-1,0,29.049448)">(experience)</text>
     </g>
    </g>
    <g transform="matrix(1,0,0,1,68.38583,1286.2205)" v:mID="5">
     <title>Shape5</title>
     <path d="M0,99.212600708 L134.6456604,99.212600708 L134.6456604,99.212600708 L134.6456604,0 L134.6456604,0 L0,0 L0,0 L0,99.212600708 " stroke="#000000" stroke-width="1.4173229" stroke-linecap="round" fill="#FFFFFF"  fill-rule="evenodd"/>
     <g transform="matrix(1,0,0,1,0,4.9606323)">
      <text x="0" y="-59.391487" class="TextStyle0" fill="#000000" opacity="1" transform="matrix(1,0,0,-1,0,52.080948)">&lt;&lt;node&gt;&gt;</text>
      <text x="0" y="-39.59433" class="TextStyle0" fill="#000000" opacity="1" transform="matrix(1,0,0,-1,0,52.080948)">exp_bottle_drop_component</text>
      <text x="0" y="-9.898582" class="TextStyle1" fill="#000000" opacity="1" transform="matrix(1,0,0,-1,0,52.080948)">@export exp_bottle_scene:</text>
      <text x="0" y="0" class="TextStyle1" fill="#000000" opacity="1" transform="matrix(1,0,0,-1,0,52.080948)">PackedScene</text>
      <text x="0" y="9.898582" class="TextStyle1" fill="#000000" opacity="1" transform="matrix(1,0,0,-1,0,52.080948)">@export heath_component:&#160;&#160;node</text>
      <text x="0" y="19.797165" class="TextStyle1" fill="#000000" opacity="1" transform="matrix(1,0,0,-1,0,52.080948)">@export drop_percent</text>
      <text x="0" y="39.59433" class="TextStyle1" fill="#000000" opacity="1" transform="matrix(1,0,0,-1,0,52.080948)">func _ready()</text>
      <text x="0" y="49.492912" class="TextStyle1" fill="#000000" opacity="1" transform="matrix(1,0,0,-1,0,52.080948)">func on_died()</text>
     </g>
    </g>
    <g transform="matrix(1,0,0,1,563.38586,570.4724)" v:mID="6">
     <title>Shape6</title>
     <path d="M0,74.409446716 L201.968505859,74.409446716 L201.968505859,74.409446716 L201.968505859,0 L201.968505859,0 L0,0 L0,0 L0,74.409446716 " stroke="#000000" stroke-width="1.4173229" stroke-linecap="round" fill="#FFFFFF"  fill-rule="evenodd"/>
     <g transform="matrix(1,0,0,1,-4.9606295,-4.9606247)">
      <text x="0" y="-19.797165" class="TextStyle0" fill="#000000" opacity="1" transform="matrix(1,0,0,-1,0,42.159683)">&lt;&lt;node2D&gt;&gt;</text>
      <text x="0" y="-9.898582" class="TextStyle1" fill="#000000" opacity="1" transform="matrix(1,0,0,-1,0,42.159683)">exp_bottle</text>
      <text x="0" y="19.797165" class="TextStyle1" fill="#000000" opacity="1" transform="matrix(1,0,0,-1,0,42.159683)">bottle_experience</text>
      <text x="0" y="29.69575" class="TextStyle1" fill="#000000" opacity="1" transform="matrix(1,0,0,-1,0,42.159683)">+ func _on_area_2d_area_entered(_area: Area2D)</text>
     </g>
    </g>
    <g transform="matrix(1,0,0,1,552.75586,1109.0552)" v:mID="7">
     <title>Shape7</title>
     <path d="M0,159.448822021 L287.007873535,159.448822021 L287.007873535,159.448822021 L287.007873535,0 L287.007873535,0 L0,0 L0,0 L0,159.448822021 " stroke="#000000" stroke-width="1.4173229" stroke-linecap="round" fill="#FFFFFF"  fill-rule="evenodd"/>
     <g transform="matrix(1,0,0,1,0,15.236221)">
      <text x="0" y="-79.188644" class="TextStyle0" fill="#000000" opacity="1" transform="matrix(1,0,0,-1,0,82.19905)">&lt;&lt;node&gt;&gt;</text>
      <text x="0" y="-69.29007" class="TextStyle0" fill="#000000" opacity="1" transform="matrix(1,0,0,-1,0,82.19905)">experience_manager</text>
      <text x="0" y="-49.492912" class="TextStyle0" fill="#000000" opacity="1" transform="matrix(1,0,0,-1,0,82.19905)">class_name ExperienceManager</text>
      <text x="0" y="-19.797165" class="TextStyle1" fill="#000000" opacity="1" transform="matrix(1,0,0,-1,0,82.19905)">signal experience_update(current_experience:float,target_experience:float)</text>
      <text x="0" y="-9.898582" class="TextStyle1" fill="#000000" opacity="1" transform="matrix(1,0,0,-1,0,82.19905)">signal level_up(current_level)</text>
      <text x="0" y="9.898582" class="TextStyle1" fill="#000000" opacity="1" transform="matrix(1,0,0,-1,0,82.19905)">current_experience</text>
      <text x="0" y="19.797165" class="TextStyle1" fill="#000000" opacity="1" transform="matrix(1,0,0,-1,0,82.19905)">target_experience</text>
      <text x="0" y="29.69575" class="TextStyle1" fill="#000000" opacity="1" transform="matrix(1,0,0,-1,0,82.19905)">target_after_lvlup</text>
      <text x="0" y="39.59433" class="TextStyle1" fill="#000000" opacity="1" transform="matrix(1,0,0,-1,0,82.19905)">current_level</text>
      <text x="0" y="59.391487" class="TextStyle1" fill="#000000" opacity="1" transform="matrix(1,0,0,-1,0,82.19905)">func _ready()</text>
      <text x="0" y="69.29007" class="TextStyle1" fill="#000000" opacity="1" transform="matrix(1,0,0,-1,0,82.19905)">func on_experience_bottle_collected(experience)</text>
     </g>
    </g>
    <g transform="matrix(1,0,0,1,1084.252,581.10236)" v:mID="8">
     <title>Shape8</title>
     <path d="M0,99.212600708 L295.866149902,99.212600708 L295.866149902,99.212600708 L295.866149902,0 L295.866149902,0 L0,0 L0,0 L0,99.212600708 " stroke="#000000" stroke-width="1.4173229" stroke-linecap="round" fill="#FFFFFF"  fill-rule="evenodd"/>
     <g transform="matrix(1,0,0,1,0,0)">
      <text x="0" y="-34.64504" class="TextStyle0" fill="#000000" opacity="1" transform="matrix(1,0,0,-1,0,52.080948)">&lt;&lt;CanvasLayer&gt;&gt;</text>
      <text x="0" y="-24.746458" class="TextStyle1" fill="#000000" opacity="1" transform="matrix(1,0,0,-1,0,52.080948)">experience_bar</text>
      <text x="0" y="-4.949291" class="TextStyle1" fill="#000000" opacity="1" transform="matrix(1,0,0,-1,0,52.080948)">@export experience_manager: ExperienceManager</text>
      <text x="0" y="4.949291" class="TextStyle1" fill="#000000" opacity="1" transform="matrix(1,0,0,-1,0,52.080948)">@onready progress_bar: ProgressBar</text>
      <text x="0" y="24.746458" class="TextStyle1" fill="#000000" opacity="1" transform="matrix(1,0,0,-1,0,52.080948)">func _ready()</text>
      <text x="0" y="34.64504" class="TextStyle1" fill="#000000" opacity="1" transform="matrix(1,0,0,-1,0,52.080948)">func on_experience_updated(current_experience:float, target_experience:float)</text>
     </g>
    </g>
    <g transform="matrix(1,0,0,1,1555.5117,520.86615)" v:mID="9">
     <title>Shape9</title>
     <path d="M0,85.039375305 L148.818893433,85.039375305 L148.818893433,85.039375305 L148.818893433,0 L148.818893433,0 L0,0 L0,0 L0,85.039375305 " stroke="#000000" stroke-width="1.4173229" stroke-linecap="round" fill="#FFFFFF"  fill-rule="evenodd"/>
     <g transform="matrix(1,0,0,1,0,-4.2519608)">
      <text x="0" y="-39.59433" class="TextStyle0" fill="#000000" opacity="1" transform="matrix(1,0,0,-1,0,47.120316)">&lt;&lt;Resource&gt;&gt;</text>
      <text x="0" y="-29.69575" class="TextStyle1" fill="#000000" opacity="1" transform="matrix(1,0,0,-1,0,47.120316)">ability_upgrade</text>
      <text x="0" y="-19.797165" class="TextStyle1" fill="#000000" opacity="1" transform="matrix(1,0,0,-1,0,47.120316)">class_name AbilityUpgrade</text>
      <text x="0" y="9.898582" class="TextStyle1" fill="#000000" opacity="1" transform="matrix(1,0,0,-1,0,47.120316)">@export id: String</text>
      <text x="0" y="19.797165" class="TextStyle1" fill="#000000" opacity="1" transform="matrix(1,0,0,-1,0,47.120316)">@export name: String</text>
      <text x="0" y="29.69575" class="TextStyle1" fill="#000000" opacity="1" transform="matrix(1,0,0,-1,0,47.120316)">@export_multiline description: String</text>
     </g>
    </g>
    <g transform="matrix(1,0,0,1,1084.252,467.71658)" v:mID="10">
     <title>Shape10</title>
     <path d="M0,99.212600708 L194.881896973,99.212600708 L194.881896973,99.212600708 L194.881896973,0 L194.881896973,0 L0,0 L0,0 L0,99.212600708 " stroke="#000000" stroke-width="1.4173229" stroke-linecap="round" fill="#FFFFFF"  fill-rule="evenodd"/>
     <g transform="matrix(1,0,0,1,-3.8976378,-19.842522)">
      <text x="0" y="-39.59433" class="TextStyle0" fill="#000000" opacity="1" transform="matrix(1,0,0,-1,0,62.002205)">&lt;&lt;PanelContainer&gt;&gt;</text>
      <text x="0" y="-29.69575" class="TextStyle1" fill="#000000" opacity="1" transform="matrix(1,0,0,-1,0,62.002205)">Iability_update_card</text>
      <text x="0" y="-19.797165" class="TextStyle1" fill="#000000" opacity="1" transform="matrix(1,0,0,-1,0,62.002205)">class_name AbilityUpdateCard</text>
      <text x="0" y="0" class="TextStyle1" fill="#000000" opacity="1" transform="matrix(1,0,0,-1,0,62.002205)">@onready name_label: Label</text>
      <text x="0" y="9.898582" class="TextStyle1" fill="#000000" opacity="1" transform="matrix(1,0,0,-1,0,62.002205)">@onready description_label: :Label</text>
      <text x="0" y="39.59433" class="TextStyle1" fill="#000000" opacity="1" transform="matrix(1,0,0,-1,0,62.002205)">func set_ability_upgrade</text>
      <text x="0" y="49.492912" class="TextStyle1" fill="#000000" opacity="1" transform="matrix(1,0,0,-1,0,62.002205)">(upgrade:AbilityUpgrade)</text>
     </g>
    </g>
    <g transform="matrix(1,0,0,1,249.09451,1257.8739)" v:mID="11">
     <title>Shape11</title>
     <path d="M0,127.559051514 L138.188980103,127.559051514 L138.188980103,127.559051514 L138.188980103,0 L138.188980103,0 L0,0 L0,0 L0,127.559051514 " stroke="#000000" stroke-width="1.4173229" stroke-linecap="round" fill="#FFFFFF"  fill-rule="evenodd"/>
     <g transform="matrix(1,0,0,1,0,14.173225)">
      <text x="0" y="-59.391487" class="TextStyle0" fill="#000000" opacity="1" transform="matrix(1,0,0,-1,0,66.25417)">&lt;&lt;node&gt;&gt;</text>
      <text x="0" y="-49.492912" class="TextStyle1" fill="#000000" opacity="1" transform="matrix(1,0,0,-1,0,66.25417)">health_component</text>
      <text x="0" y="-39.59433" class="TextStyle1" fill="#000000" opacity="1" transform="matrix(1,0,0,-1,0,66.25417)">class_name HealthComponent</text>
      <text x="0" y="-9.898582" class="TextStyle1" fill="#000000" opacity="1" transform="matrix(1,0,0,-1,0,66.25417)">signal died</text>
      <text x="0" y="0" class="TextStyle1" fill="#000000" opacity="1" transform="matrix(1,0,0,-1,0,66.25417)">@export max_heath</text>
      <text x="0" y="9.898582" class="TextStyle1" fill="#000000" opacity="1" transform="matrix(1,0,0,-1,0,66.25417)">current_heath</text>
      <text x="0" y="29.69575" class="TextStyle1" fill="#000000" opacity="1" transform="matrix(1,0,0,-1,0,66.25417)">func _ready()</text>
      <text x="0" y="39.59433" class="TextStyle1" fill="#000000" opacity="1" transform="matrix(1,0,0,-1,0,66.25417)">func take_damage</text>
      <text x="0" y="49.492912" class="TextStyle1" fill="#000000" opacity="1" transform="matrix(1,0,0,-1,0,66.25417)">(damage)</text>
      <text x="0" y="59.391487" class="TextStyle1" fill="#000000" opacity="1" transform="matrix(1,0,0,-1,0,66.25417)">func check_death()</text>
     </g>
    </g>
    <g transform="matrix(1,0,0,1,68.38583,1155.118)" v:mID="12">
     <title>Shape12</title>
     <path d="M0,60.236221313 L134.6456604,60.236221313 L134.6456604,60.236221313 L134.6456604,0 L134.6456604,0 L0,0 L0,0 L0,60.236221313 " stroke="#000000" stroke-width="1.4173229" stroke-linecap="round" fill="#FFFFFF"  fill-rule="evenodd"/>
     <g transform="matrix(1,0,0,1,-8.858268,-19.13385)">
      <text x="0" y="-14.847875" class="TextStyle0" fill="#000000" opacity="1" transform="matrix(1,0,0,-1,0,42.159683)">&lt;&lt;Area2D&gt;&gt;</text>
      <text x="0" y="-4.949291" class="TextStyle1" fill="#000000" opacity="1" transform="matrix(1,0,0,-1,0,42.159683)">hit_box_component</text>
      <text x="0" y="4.949291" class="TextStyle1" fill="#000000" opacity="1" transform="matrix(1,0,0,-1,0,42.159683)">class_name HitBoxComponent</text>
      <text x="0" y="24.746458" class="TextStyle1" fill="#000000" opacity="1" transform="matrix(1,0,0,-1,0,42.159683)">damage</text>
     </g>
    </g>
    <g transform="matrix(1,0,0,1,552.7559,1016.92914)" v:mID="13">
     <title>Shape13</title>
     <path d="M0,77.95275116 L134.6456604,77.95275116 L134.6456604,77.95275116 L134.6456604,0 L134.6456604,0 L0,0 L0,0 L0,77.95275116 " stroke="#000000" stroke-width="1.4173229" stroke-linecap="round" fill="#FFFFFF"  fill-rule="evenodd"/>
     <g transform="matrix(1,0,0,1,-18.779528,-1.4173203)">
      <text x="0" y="-19.797165" class="TextStyle0" fill="#000000" opacity="1" transform="matrix(1,0,0,-1,0,42.159683)">&lt;&lt;node&gt;&gt;</text>
      <text x="0" y="-9.898582" class="TextStyle1" fill="#000000" opacity="1" transform="matrix(1,0,0,-1,0,42.159683)">enemy_spawner</text>
      <text x="0" y="19.797165" class="TextStyle1" fill="#000000" opacity="1" transform="matrix(1,0,0,-1,0,42.159683)">skeleton_scene</text>
      <text x="0" y="29.69575" class="TextStyle1" fill="#000000" opacity="1" transform="matrix(1,0,0,-1,0,42.159683)">func _on_timer_tomeout()</text>
     </g>
    </g>
    <g transform="matrix(1,0,0,1,552.7559,1286.2205)" v:mID="14">
     <title>Shape14</title>
     <path d="M0,99.212600708 L134.6456604,99.212600708 L134.6456604,99.212600708 L134.6456604,0 L134.6456604,0 L0,0 L0,0 L0,99.212600708 " stroke="#000000" stroke-width="1.4173229" stroke-linecap="round" fill="#FFFFFF"  fill-rule="evenodd"/>
     <g transform="matrix(1,0,0,1,-21.614174,9.921265)">
      <text x="0" y="-19.797165" class="TextStyle0" fill="#000000" opacity="1" transform="matrix(1,0,0,-1,0,52.080948)">&lt;&lt;node&gt;&gt;</text>
      <text x="0" y="-9.898582" class="TextStyle1" fill="#000000" opacity="1" transform="matrix(1,0,0,-1,0,52.080948)">arena_time_manager</text>
      <text x="0" y="19.797165" class="TextStyle1" fill="#000000" opacity="1" transform="matrix(1,0,0,-1,0,52.080948)">@onready timer</text>
      <text x="0" y="29.69575" class="TextStyle1" fill="#000000" opacity="1" transform="matrix(1,0,0,-1,0,52.080948)">func get_time_elapsed()</text>
     </g>
    </g>
    <g transform="matrix(1,0,0,1,235.2756,1103.7402)" v:mID="15">
     <title>Shape15</title>
     <path d="M0,90.35433197 L191.338577271,90.35433197 L191.338577271,90.35433197 L191.338577271,0 L191.338577271,0 L0,0 L0,0 L0,90.35433197 " stroke="#000000" stroke-width="1.4173229" stroke-linecap="round" fill="#FFFFFF"  fill-rule="evenodd"/>
     <g transform="matrix(1,0,0,1,-7.7952757,-8.858269)">
      <text x="0" y="-24.746458" class="TextStyle0" fill="#000000" opacity="1" transform="matrix(1,0,0,-1,0,52.080948)">&lt;&lt;Area2D&gt;&gt;</text>
      <text x="0" y="-14.847875" class="TextStyle1" fill="#000000" opacity="1" transform="matrix(1,0,0,-1,0,52.080948)">hurt_box_component</text>
      <text x="0" y="-4.949291" class="TextStyle1" fill="#000000" opacity="1" transform="matrix(1,0,0,-1,0,52.080948)">class_name HurtBoxComponent</text>
      <text x="0" y="24.746458" class="TextStyle1" fill="#000000" opacity="1" transform="matrix(1,0,0,-1,0,52.080948)">@export health_component: HeathComponent</text>
      <text x="0" y="34.64504" class="TextStyle1" fill="#000000" opacity="1" transform="matrix(1,0,0,-1,0,52.080948)">func _on_area_entered(area: Area2D)</text>
     </g>
    </g>
    <g transform="matrix(1,0,0,1,563.38586,442.91336)" v:mID="16">
     <title>Shape16</title>
     <path d="M0,116.929130554 L134.6456604,116.929130554 L134.6456604,116.929130554 L134.6456604,0 L134.6456604,0 L0,0 L0,0 L0,116.929130554 " stroke="#000000" stroke-width="1.4173229" stroke-linecap="round" fill="#FFFFFF"  fill-rule="evenodd"/>
     <g transform="matrix(1,0,0,1,0,18.779526)">
      <text x="0" y="-59.391487" class="TextStyle0" fill="#000000" opacity="1" transform="matrix(1,0,0,-1,0,60.93921)">&lt;&lt;CharacterBody2D&gt;&gt;</text>
      <text x="0" y="-49.492912" class="TextStyle1" fill="#000000" opacity="1" transform="matrix(1,0,0,-1,0,60.93921)">skeleton</text>
      <text x="0" y="-19.797165" class="TextStyle1" fill="#000000" opacity="1" transform="matrix(1,0,0,-1,0,60.93921)">SKELETOn_SPEED</text>
      <text x="0" y="-9.898582" class="TextStyle1" fill="#000000" opacity="1" transform="matrix(1,0,0,-1,0,60.93921)">SKELETOn_STATE</text>
      <text x="0" y="0" class="TextStyle1" fill="#000000" opacity="1" transform="matrix(1,0,0,-1,0,60.93921)">@onready health_component</text>
      <text x="0" y="19.797165" class="TextStyle1" fill="#000000" opacity="1" transform="matrix(1,0,0,-1,0,60.93921)">func _process</text>
      <text x="0" y="29.69575" class="TextStyle1" fill="#000000" opacity="1" transform="matrix(1,0,0,-1,0,60.93921)">(_delta: float)</text>
      <text x="0" y="39.59433" class="TextStyle1" fill="#000000" opacity="1" transform="matrix(1,0,0,-1,0,60.93921)">func _physics_process</text>
      <text x="0" y="49.492912" class="TextStyle1" fill="#000000" opacity="1" transform="matrix(1,0,0,-1,0,60.93921)">(delta: float)</text>
      <text x="0" y="59.391487" class="TextStyle1" fill="#000000" opacity="1" transform="matrix(1,0,0,-1,0,60.93921)">func get_direction_to_player()</text>
     </g>
    </g>
    <g transform="matrix(1,0,0,1,1078.9369,1307.4803)" v:mID="17">
     <title>Shape17</title>
     <path d="M0,74.409446716 L201.968505859,74.409446716 L201.968505859,74.409446716 L201.968505859,0 L201.968505859,0 L0,0 L0,0 L0,74.409446716 " stroke="#000000" stroke-width="1.4173229" stroke-linecap="round" fill="#FFFFFF"  fill-rule="evenodd"/>
     <g transform="matrix(1,0,0,1,-6.023622,-4.9606247)">
      <text x="0" y="-19.797165" class="TextStyle0" fill="#000000" opacity="1" transform="matrix(1,0,0,-1,0,42.159683)">&lt;&lt;node2D&gt;&gt;</text>
      <text x="0" y="-9.898582" class="TextStyle1" fill="#000000" opacity="1" transform="matrix(1,0,0,-1,0,42.159683)">attack_ability</text>
      <text x="0" y="0" class="TextStyle1" fill="#000000" opacity="1" transform="matrix(1,0,0,-1,0,42.159683)">class_name AttackAbility</text>
      <text x="0" y="29.69575" class="TextStyle1" fill="#000000" opacity="1" transform="matrix(1,0,0,-1,0,42.159683)">@onready hit_box_component: HitBoxComponent</text>
     </g>
    </g>
    <g transform="matrix(1,0,0,1,1078.937,1194.0946)" v:mID="18">
     <title>Shape18</title>
     <path d="M0,95.669288635 L134.6456604,95.669288635 L134.6456604,95.669288635 L134.6456604,0 L134.6456604,0 L0,0 L0,0 L0,95.669288635 " stroke="#000000" stroke-width="1.4173229" stroke-linecap="round" fill="#FFFFFF"  fill-rule="evenodd"/>
     <g transform="matrix(1,0,0,1,-3.1889765,8.149605)">
      <text x="0" y="-34.64504" class="TextStyle0" fill="#000000" opacity="1" transform="matrix(1,0,0,-1,0,50.309288)">&lt;&lt;node&gt;&gt;</text>
      <text x="0" y="-24.746458" class="TextStyle1" fill="#000000" opacity="1" transform="matrix(1,0,0,-1,0,50.309288)">attack_controller</text>
      <text x="0" y="4.949291" class="TextStyle1" fill="#000000" opacity="1" transform="matrix(1,0,0,-1,0,50.309288)">attack_ability</text>
      <text x="0" y="14.847875" class="TextStyle1" fill="#000000" opacity="1" transform="matrix(1,0,0,-1,0,50.309288)">attack_range</text>
      <text x="0" y="24.746458" class="TextStyle1" fill="#000000" opacity="1" transform="matrix(1,0,0,-1,0,50.309288)">damage</text>
      <text x="0" y="44.54362" class="TextStyle1" fill="#000000" opacity="1" transform="matrix(1,0,0,-1,0,50.309288)">func _on_timer_timeout()</text>
     </g>
    </g>
    <g transform="matrix(1,0,0,1,1084.252,694.48816)" v:mID="19">
     <title>Shape19</title>
     <path d="M0,99.212600708 L141.732284546,99.212600708 L141.732284546,99.212600708 L141.732284546,0 L141.732284546,0 L0,0 L0,0 L0,99.212600708 " stroke="#000000" stroke-width="1.4173229" stroke-linecap="round" fill="#FFFFFF"  fill-rule="evenodd"/>
     <g transform="matrix(1,0,0,1,-1.4173229,0)">
      <text x="0" y="-34.64504" class="TextStyle0" fill="#000000" opacity="1" transform="matrix(1,0,0,-1,0,52.080948)">&lt;&lt;CanvasLayer&gt;&gt;</text>
      <text x="0" y="-24.746458" class="TextStyle1" fill="#000000" opacity="1" transform="matrix(1,0,0,-1,0,52.080948)">arena_time_ui</text>
      <text x="0" y="4.949291" class="TextStyle1" fill="#000000" opacity="1" transform="matrix(1,0,0,-1,0,52.080948)">@export arena_time_manager: node</text>
      <text x="0" y="14.847875" class="TextStyle1" fill="#000000" opacity="1" transform="matrix(1,0,0,-1,0,52.080948)">func _process</text>
      <text x="0" y="24.746458" class="TextStyle1" fill="#000000" opacity="1" transform="matrix(1,0,0,-1,0,52.080948)">(_delta: float)</text>
      <text x="0" y="34.64504" class="TextStyle1" fill="#000000" opacity="1" transform="matrix(1,0,0,-1,0,52.080948)">func format_timer</text>
      <text x="0" y="44.54362" class="TextStyle1" fill="#000000" opacity="1" transform="matrix(1,0,0,-1,0,52.080948)">(seconds: float)</text>
     </g>
    </g>
    <g transform="matrix(1,0,0,1,1530.7086,483.66144)" v:mID="20">
     <title>Shape20</title>
     <path d="M0,143.503936768 L201.968505859,143.503936768 L201.968505859,143.503936768 L201.968505859,0 L201.968505859,0 L0,0 L0,0 L0,143.503936768 " stroke="#000000" stroke-width="1.4173229" stroke-linecap="round" fill="#FFFFFF"  fill-rule="evenodd"/>
    </g>
    <g transform="matrix(1,0,0,1,1589.1732,630.7087)" v:mID="21">
     <title>Shape21</title>
     <g transform="matrix(1,0,0,1,1.4173241,1.4173222)">
      <text x="25.297497" y="4.949291" class="TextStyle2" fill="#000000" opacity="1" transform="matrix(1,0,0,-1,0,15.230552)">Upgrades</text>
     </g>
    </g>
    <g transform="matrix(1,0,0,1,1062.9921,1116.1417)" v:mID="22">
     <title>Shape22</title>
     <path d="M0,276.377960205 L233.858261108,276.377960205 L233.858261108,276.377960205 L233.858261108,0 L233.858261108,0 L0,0 L0,0 L0,276.377960205 " stroke="#000000" stroke-width="1.4173229" stroke-linecap="round" fill="#FFFFFF"  fill-rule="evenodd"/>
    </g>
    <g transform="matrix(1,0,0,1,1201.1812,1396.063)" v:mID="23">
     <title>Shape23</title>
     <g transform="matrix(1,0,0,1,1.4173241,1.4173222)">
      <text x="26.896511" y="4.949291" class="TextStyle2" fill="#000000" opacity="1" transform="matrix(1,0,0,-1,0,15.230552)">Abilities</text>
     </g>
    </g>
    <g transform="matrix(1,0,0,1,59.173218,1087.7954)" v:mID="24">
     <title>Shape24</title>
     <path d="M0,308.267700195 L387.283477783,308.267700195 L387.283477783,308.267700195 L387.283477783,0 L387.283477783,0 L0,0 L0,0 L0,308.267700195 " stroke="#000000" stroke-width="1.4173229" stroke-linecap="round" fill="#FFFFFF"  fill-rule="evenodd"/>
    </g>
    <g transform="matrix(1,0,0,1,201.9685,1396.063)" v:mID="25">
     <title>Shape25</title>
     <g transform="matrix(1,0,0,1,1.4173241,1.4173222)">
      <text x="20.250736" y="4.949291" class="TextStyle2" fill="#000000" opacity="1" transform="matrix(1,0,0,-1,0,15.230552)">Components</text>
     </g>
    </g>
    <g transform="matrix(1,0,0,1,552.7559,240.94489)" v:mID="26">
     <title>Shape26</title>
     <path d="M0,418.110229492 L244.488189697,418.110229492 L244.488189697,418.110229492 L244.488189697,0 L244.488189697,0 L0,0 L0,0 L0,418.110229492 " stroke="#000000" stroke-width="1.4173229" stroke-linecap="round" fill="#FFFFFF"  fill-rule="evenodd"/>
    </g>
    <g transform="matrix(1,0,0,1,632.4803,659.0551)" v:mID="27">
     <title>Shape27</title>
     <g transform="matrix(1,0,0,1,1.4173241,1.4173222)">
      <text x="18.540958" y="4.949291" class="TextStyle2" fill="#000000" opacity="1" transform="matrix(1,0,0,-1,0,15.230552)">Game objects</text>
     </g>
    </g>
    <g transform="matrix(1,0,0,1,143.50394,510.23624)" v:mID="28">
     <title>Shape28</title>
     <path d="M0,148.818893433 L201.968505859,148.818893433 L201.968505859,148.818893433 L201.968505859,0 L201.968505859,0 L0,0 L0,0 L0,148.818893433 " stroke="#000000" stroke-width="1.4173229" stroke-linecap="round" fill="#FFFFFF"  fill-rule="evenodd"/>
    </g>
    <g transform="matrix(1,0,0,1,201.9685,659.0551)" v:mID="29">
     <title>Shape29</title>
     <g transform="matrix(1,0,0,1,1.4173241,1.4173222)">
      <text x="29.877043" y="4.949291" class="TextStyle2" fill="#000000" opacity="1" transform="matrix(1,0,0,-1,0,15.230552)">Global</text>
     </g>
    </g>
    <g transform="matrix(1,0,0,1,542.126,797.24414)" v:mID="30">
     <title>Shape30</title>
     <path d="M0,598.818847656 L414.566925049,598.818847656 L414.566925049,598.818847656 L414.566925049,0 L414.566925049,0 L0,0 L0,0 L0,598.818847656 " stroke="#000000" stroke-width="1.4173229" stroke-linecap="round" fill="#FFFFFF"  fill-rule="evenodd"/>
    </g>
    <g transform="matrix(1,0,0,1,659.0551,1396.063)" v:mID="31">
     <title>Shape31</title>
     <g transform="matrix(1,0,0,1,1.4173241,1.4173222)">
      <text x="26.445404" y="4.949291" class="TextStyle2" fill="#000000" opacity="1" transform="matrix(1,0,0,-1,0,15.230552)">Manager</text>
     </g>
    </g>
    <g transform="matrix(1,0,0,1,1073.622,297.6378)" v:mID="32">
     <title>Shape32</title>
     <path d="M0,503.149597168 L318.897644043,503.149597168 L318.897644043,503.149597168 L318.897644043,0 L318.897644043,0 L0,0 L0,0 L0,503.149597168 " stroke="#000000" stroke-width="1.4173229" stroke-linecap="round" fill="#FFFFFF"  fill-rule="evenodd"/>
    </g>
    <g transform="matrix(1,0,0,1,1190.5511,800.78735)" v:mID="33">
     <title>Shape33</title>
     <g transform="matrix(1,0,0,1,1.4173241,1.4173222)">
      <text x="36.75039" y="4.949291" class="TextStyle2" fill="#000000" opacity="1" transform="matrix(1,0,0,-1,0,15.230552)">UI</text>
     </g>
    </g>
    <g transform="matrix(1,0,0,1,687.4015,744.0944)" v:mID="34">
     <title>Dynamic connector.34</title>
     <g transform="matrix(1,0,0,1,0,0)" v:mID="34">
      <title>Dynamic connector.34</title>
      <path d="M-5.760000229,588.852294922 L0,591.732299805 L-5.760000229,594.612304688 M-5.759999752,588.852294922 C-4.608000278,590.580322266 -4.608000278,592.884277344 -5.759999752,594.612304688 " stroke="#000000" stroke-width="0" fill="#000000"  fill-rule="evenodd" opacity="0" transform="matrix(-1,0,0,-1,0,1183.4646)"/>
      <path d="M396.850402832,0 L322.440948486,0 L322.440948486,0 L322.440948486,591.732299805 L322.440948486,591.732299805 L0,591.732299805 " stroke="#000000" stroke-width="1.4173229" stroke-linecap="round" fill="none" stroke-opacity="0"/>
     </g>
     <path d="M-5.760000229,588.852294922 L0,591.732299805 L-5.760000229,594.612304688 M-5.759999752,588.852294922 C-4.608000278,590.580322266 -4.608000278,592.884277344 -5.759999752,594.612304688 " stroke="#000000" stroke-width="0" fill="#000000"  fill-rule="evenodd" transform="matrix(-1,0,0,-1,0,1183.4646)"/>
     <path d="M396.850402832,0 L322.440948486,0 L322.440948486,0 L322.440948486,591.732299805 L322.440948486,591.732299805 L0,591.732299805 " stroke="#000000" stroke-width="1.4173229" stroke-linecap="round" fill="none"/>
    </g>
    <g transform="matrix(1,0,0,1,1279.1339,517.3229)" v:mID="35">
     <title>Dynamic connector.35</title>
     <path d="M270.617950439,43.182991028 L276.377960205,46.062992096 L270.617950439,48.942993164 M270.617950439,43.182991028 C271.769958496,44.910995483 271.769958496,47.214988708 270.617950439,48.942993164 " stroke="#000000" stroke-width="0" fill="#000000"  fill-rule="evenodd" transform="matrix(1,0,0,1,0,0)"/>
     <path d="M0,0 L177.165359497,0 L177.165359497,0 L177.165359497,46.062992096 L177.165359497,46.062992096 L276.377960205,46.062992096 " stroke="#000000" stroke-width="1.4173229" stroke-linecap="round" fill="none"/>
    </g>
    <g transform="matrix(1,0,0,1,1213.5826,1241.9292)" v:mID="36">
     <title>Dynamic connector.36</title>
     <path d="M11.070708275,62.67117691 L16.83070755,65.551177979 L11.070708275,68.431182861 M11.070708275,62.67117691 C12.222708702,64.399185181 12.222708702,66.703178406 11.070708275,68.431182861 " stroke="#000000" stroke-width="0" fill="#000000"  fill-rule="evenodd" transform="matrix(0,1,-1,-0,82.38188,48.72047)"/>
     <path d="M0,0 L16.83070755,0 L16.83070755,0 L16.83070755,65.551177979 " stroke="#000000" stroke-width="1.4173229" stroke-linecap="round" fill="none"/>
    </g>
    <g transform="matrix(1,0,0,1,839.7638,630.70874)" v:mID="37">
     <title>Dynamic connector.37</title>
     <path d="M-5.760000229,555.190856934 L0,558.070861816 L-5.760000229,560.950866699 M-5.759999752,555.190856934 C-4.608000278,556.918884277 -4.608000278,559.222839355 -5.759999752,560.950866699 " stroke="#000000" stroke-width="0" fill="#000000"  fill-rule="evenodd" transform="matrix(-1,0,0,-1,0,1116.1417)"/>
     <path d="M244.488189697,0 L127.559051514,0 L127.559051514,0 L127.559051514,558.070861816 L127.559051514,558.070861816 L0,558.070861816 " stroke="#000000" stroke-width="1.4173229" stroke-linecap="round" fill="none"/>
    </g>
    <g transform="matrix(1,0,0,1,289.66534,648.42523)" v:mID="38">
     <title>Dynamic connector.38</title>
     <path d="M-5.760000229,-2.880000114 L0,0 L-5.760000229,2.880000114 M-5.759999752,-2.879999876 C-4.608000278,-1.15200007 -4.608000278,1.15200007 -5.759999752,2.879999876 " stroke="#000000" stroke-width="0" fill="#000000"  fill-rule="evenodd" transform="matrix(-0,-1,1,0,-0,0)"/>
     <path d="M263.090545654,540.354370117 L178.051177979,540.354370117 L178.051177979,540.354370117 L178.051177979,63.779525757 L178.051177979,63.779525757 L0,63.779525757 L0,63.779525757 L0,0 " stroke="#000000" stroke-width="1.4173229" stroke-linecap="round" fill="none"/>
    </g>
    <g transform="matrix(1,0,0,1,334.8425,606.7913)" v:mID="39">
     <title>Dynamic connector.39</title>
     <path d="M-5.760000229,-1.108346701 L0,1.771653533 L-5.760000229,4.651653767 M-5.759999752,-1.108346701 C-4.608000278,0.619653463 -4.608000278,2.923653364 -5.759999752,4.651653767 " stroke="#000000" stroke-width="0" fill="#000000"  fill-rule="evenodd" transform="matrix(-0.9999701,0.0077396017,-0.0077396017,-0.9999701,0.013711893,3.543254)"/>
     <path d="M228.543319702,0.885826766 L114.448822021,0.885826766 L114.448822021,0.885826766 L0,1.771653533 " stroke="#000000" stroke-width="1.4173229" stroke-linecap="round" fill="none"/>
    </g>
    <g transform="matrix(1,0,0,1,203.0315,1335.8268)" v:mID="40">
     <title>Dynamic connector.40</title>
     <path d="M40.302993774,14.836535454 L46.062992096,17.716535568 L40.302993774,20.596534729 M40.302993774,14.836535454 C41.454994202,16.564535141 41.454994202,18.868535995 40.302993774,20.596534729 " stroke="#000000" stroke-width="0" fill="#000000"  fill-rule="evenodd" transform="matrix(1,0,0,1,0,0)"/>
     <path d="M0,0 L23.031496048,0 L23.031496048,0 L23.031496048,17.716535568 L23.031496048,17.716535568 L46.062992096,17.716535568 " stroke="#000000" stroke-width="1.4173229" stroke-linecap="round" fill="none"/>
    </g>
    <g transform="matrix(1,0,0,1,330.94492,1194.0945)" v:mID="41">
     <title>Dynamic connector.41</title>
     <path d="M16.031337738,60.899524689 L21.791339874,63.779525757 L16.031337738,66.65953064 M16.031337738,60.899524689 C17.183338165,62.627529144 17.183338165,64.931526184 16.031337738,66.65953064 " stroke="#000000" stroke-width="0" fill="#000000"  fill-rule="evenodd" transform="matrix(0,1,-1,-0,85.57086,41.988186)"/>
     <path d="M0,0 L0,31.889762878 L0,31.889762878 L21.791339874,31.889762878 L21.791339874,31.889762878 L21.791339874,63.779525757 " stroke="#000000" stroke-width="1.4173229" stroke-linecap="round" fill="none"/>
    </g>
    <g transform="matrix(1,0,0,1,203.0315,1171.4174)" v:mID="42">
     <title>Dynamic connector.42</title>
     <path d="M-5.760000229,25.997951508 L0,28.877952576 L-5.760000229,31.757951736 M-5.759999752,25.997951508 C-4.608000278,27.725952148 -4.608000278,30.029953003 -5.759999752,31.757951736 " stroke="#000000" stroke-width="0" fill="#000000"  fill-rule="evenodd" transform="matrix(-1,0,0,-1,6.445238E-13,57.755905)"/>
     <path d="M32.244094849,0.08858268 L16.122047424,0 L16.122047424,0 L16.122047424,28.877952576 L16.122047424,28.877952576 L0,28.877952576 " stroke="#000000" stroke-width="1.4173229" stroke-linecap="round" fill="none"/>
    </g>
    <g transform="matrix(1,0,0,1,387.28348,501.3779)" v:mID="43">
     <title>Dynamic connector.43</title>
     <path d="M-5.760000229,849.285339355 L0,852.165344238 L-5.760000229,855.045288086 M-5.759999752,849.285339355 C-4.608000278,851.013305664 -4.608000278,853.317321777 -5.759999752,855.045288086 " stroke="#000000" stroke-width="0" fill="#000000"  fill-rule="evenodd" transform="matrix(-1,0,0,-1,6.445238E-13,1704.3307)"/>
     <path d="M176.102355957,0 L112.32283783,0 L112.32283783,0 L112.32283783,852.165344238 L112.32283783,852.165344238 L0,852.165344238 " stroke="#000000" stroke-width="1.4173229" stroke-linecap="round" fill="none"/>
    </g>
    <g transform="matrix(1,0,0,1,765.3543,940.74805)" v:mID="44">
     <title>Dynamic connector.44</title>
     <path d="M-3.102519989,165.427078247 L2.657480478,168.30708313 L-3.102519989,171.187072754 M-3.102519989,165.427078247 C-1.9505198,167.155075073 -1.9505198,169.459075928 -3.102519989,171.187072754 " stroke="#000000" stroke-width="0" fill="#000000"  fill-rule="evenodd" transform="matrix(0,1,-1,-0,170.96457,165.6496)"/>
     <path d="M0,0 L2.657480478,0 L2.657480478,0 L2.657480478,168.30708313 " stroke="#000000" stroke-width="1.4173229" stroke-linecap="round" fill="none"/>
    </g>
    <g transform="matrix(1,0,0,1,765.3543,605.90546)" v:mID="45">
     <title>Dynamic connector.45</title>
     <path d="M821.602172852,-2.880000114 L827.362182617,0 L821.602172852,2.880000114 M821.602172852,-2.879999876 C822.754150391,-1.15200007 822.754150391,1.15200007 821.602172852,2.879999876 " stroke="#000000" stroke-width="0" fill="#000000"  fill-rule="evenodd" transform="matrix(-0,-1,1,0,827.3622,827.3622)"/>
     <path d="M0,305.610229492 L827.362182617,305.610229492 L827.362182617,305.610229492 L827.362182617,0 " stroke="#000000" stroke-width="1.4173229" stroke-linecap="round" fill="none"/>
    </g>
    <g transform="matrix(1,0,0,1,765.3544,421.65356)" v:mID="46">
     <title>Dynamic connector.46</title>
     <path d="M313.137634277,-2.880000114 L318.897644043,0 L313.137634277,2.880000114 M313.137634277,-2.879999876 C314.289642334,-1.15200007 314.289642334,1.15200007 313.137634277,2.879999876 " stroke="#000000" stroke-width="0" fill="#000000"  fill-rule="evenodd" transform="matrix(1,0,0,1,0,0)"/>
     <path d="M0,460.62991333 L138.188980103,460.62991333 L138.188980103,460.62991333 L138.188980103,0 L138.188980103,0 L318.897644043,0 " stroke="#000000" stroke-width="1.4173229" stroke-linecap="round" fill="none"/>
    </g>
    <g transform="matrix(1,0,0,1,1230.4135,446.45673)" v:mID="47">
     <title>Dynamic connector.47</title>
     <path d="M-5.760000229,18.379844666 L0,21.259843826 L-5.760000229,24.139842987 M-5.759999752,18.379844666 C-4.608000278,20.107843399 -4.608000278,22.411842346 -5.759999752,24.139842987 " stroke="#000000" stroke-width="0" fill="#000000"  fill-rule="evenodd" transform="matrix(0,1,-1,-0,21.259844,21.259844)"/>
     <path d="M29.232282639,0 L29.232282639,14.173228264 L29.232282639,14.173228264 L0,14.173228264 L0,14.173228264 L0,21.259843826 " stroke="#000000" stroke-width="1.4173229" stroke-linecap="round" fill="none"/>
    </g>
   </g>
  </g>
 </g>
 <style type="text/css"><![CDATA[ .TextStyle2 {font-family:Times New Roman;font-size:8.248819px;}.TextStyle1 {font-family:Arial;font-size:8.248819px;}.TextStyle0 {font-family:Arial;font-size:8.248819px;font-style:italic;} ]]></style>
</svg>
